<svg width="150" height="150" viewBox="0 0 150 150" fill="none" xmlns="http://www.w3.org/2000/svg">
<circle cx="75" cy="75" r="75" fill="#6DC696"/>
<g filter="url(#filter0_d_1_6)">
<path d="M57.3672 40.4141C60.0755 40.4141 62.4453 40.7656 64.4766 41.4688C66.5339 42.1719 68.2526 43.1484 69.6328 44.3984C71.013 45.6224 72.0417 47.0677 72.7188 48.7344C73.4219 50.375 73.7734 52.1328 73.7734 54.0078C73.7734 56.0651 73.4219 58.0443 72.7188 59.9453C72.0417 61.8203 71.0911 63.6042 69.8672 65.2969C68.6693 66.9896 67.25 68.5781 65.6094 70.0625C63.9688 71.5469 62.2109 72.901 60.3359 74.125C58.4609 75.349 56.5078 76.4427 54.4766 77.4062C52.4714 78.3698 50.4792 79.1771 48.5 79.8281C49.9062 81.0781 51.1823 82.5365 52.3281 84.2031C53.474 85.8438 54.5677 87.6016 55.6094 89.4766C56.651 91.3255 57.6797 93.2266 58.6953 95.1797C59.7109 97.1328 60.7786 99.0339 61.8984 100.883C63.0182 102.706 64.2292 104.438 65.5312 106.078C66.8594 107.719 68.3568 109.151 70.0234 110.375C71.7161 111.625 73.6042 112.602 75.6875 113.305C77.7708 114.034 80.1536 114.398 82.8359 114.398L82.9922 116C82.6536 116.078 82.263 116.143 81.8203 116.195C81.4557 116.247 81 116.286 80.4531 116.312C79.9062 116.365 79.2812 116.391 78.5781 116.391C75.1927 116.391 72.237 116 69.7109 115.219C67.1849 114.464 64.9844 113.422 63.1094 112.094C61.2604 110.792 59.6849 109.268 58.3828 107.523C57.0807 105.805 55.9349 103.982 54.9453 102.055C53.9818 100.102 53.1354 98.1224 52.4062 96.1172C51.6771 94.0859 50.9479 92.1328 50.2188 90.2578C49.5156 88.3568 48.7604 86.599 47.9531 84.9844C47.1719 83.3438 46.2344 81.9505 45.1406 80.8047C44.6198 80.9349 44.099 81.0391 43.5781 81.1172C43.0833 81.1953 42.5885 81.2734 42.0938 81.3516C42.0677 83.2266 42.0286 84.8542 41.9766 86.2344C41.9505 87.5885 41.9115 88.7865 41.8594 89.8281C41.8073 90.8438 41.7422 91.7422 41.6641 92.5234C41.5859 93.3047 41.4948 94.0599 41.3906 94.7891C41.1042 96.8203 40.6875 98.5521 40.1406 99.9844C39.5938 101.391 38.9297 102.549 38.1484 103.461C37.3672 104.346 36.4688 104.997 35.4531 105.414C34.4635 105.805 33.3698 106 32.1719 106C30.4792 106 28.8906 105.505 27.4062 104.516C25.9479 103.526 24.6849 102.055 23.6172 100.102C22.5495 98.1484 21.7031 95.7266 21.0781 92.8359C20.4792 89.9453 20.1797 86.599 20.1797 82.7969C20.1797 78.8125 20.6094 74.9974 21.4688 71.3516C22.3281 67.6797 23.5391 64.2812 25.1016 61.1562C26.6901 58.0052 28.6042 55.1536 30.8438 52.6016C33.0833 50.0495 35.5703 47.875 38.3047 46.0781C41.0651 44.2552 44.0469 42.862 47.25 41.8984C50.4792 40.9089 53.8516 40.4141 57.3672 40.4141ZM33.3828 78.3828C33.3828 77.7057 33.6432 77.1328 34.1641 76.6641C34.7109 76.1693 35.4401 75.8438 36.3516 75.6875C36.2995 73.1354 36.2344 70.8047 36.1562 68.6953C36.0781 66.5859 36.013 64.763 35.9609 63.2266C35.8828 61.4297 35.8177 59.8151 35.7656 58.3828C35.9479 58.2266 36.1562 58.0964 36.3906 57.9922C36.599 57.888 36.8464 57.7969 37.1328 57.7188C37.4193 57.6406 37.7708 57.6016 38.1875 57.6016C39.3854 57.6016 40.349 57.8229 41.0781 58.2656C41.8073 58.6823 42.1719 59.3984 42.1719 60.4141C42.1719 63.487 42.1719 66.3385 42.1719 68.9688C42.1719 71.5729 42.1458 74.0208 42.0938 76.3125C42.9271 76.5469 43.7214 76.8464 44.4766 77.2109C45.2578 77.5495 45.987 77.9401 46.6641 78.3828C49.0599 77.7318 51.4688 76.7943 53.8906 75.5703C56.3125 74.3464 58.487 72.7969 60.4141 70.9219C62.3672 69.0208 63.9427 66.7812 65.1406 64.2031C66.3646 61.599 66.9766 58.6042 66.9766 55.2188C66.9766 53.0052 66.6641 51.1172 66.0391 49.5547C65.4401 47.9922 64.6198 46.7161 63.5781 45.7266C62.5365 44.7109 61.2995 43.9688 59.8672 43.5C58.4609 43.0312 56.9635 42.7969 55.375 42.7969C52.7188 42.7969 50.1016 43.1875 47.5234 43.9688C44.9714 44.724 42.5495 45.8828 40.2578 47.4453C37.9922 49.0078 35.8958 50.987 33.9688 53.3828C32.0677 55.7786 30.4141 58.6042 29.0078 61.8594C27.6276 65.1146 26.5469 68.8125 25.7656 72.9531C24.9844 77.0938 24.5938 81.7031 24.5938 86.7812C24.5938 88.9948 24.6979 91.1432 24.9062 93.2266C25.1406 95.2839 25.5182 97.1198 26.0391 98.7344C26.5599 100.323 27.25 101.599 28.1094 102.562C28.9948 103.526 30.0885 104.008 31.3906 104.008C32.0938 104.008 32.7578 103.865 33.3828 103.578C34.0078 103.292 34.5547 102.706 35.0234 101.82C35.4922 100.909 35.8698 99.6198 36.1562 97.9531C36.4427 96.2604 36.5859 94.0078 36.5859 91.1953C36.5859 90.1797 36.5859 89.2812 36.5859 88.5C36.5859 87.6927 36.5859 86.9245 36.5859 86.1953C36.5859 85.4401 36.5729 84.6849 36.5469 83.9297C36.5469 83.1745 36.5339 82.3411 36.5078 81.4297C35.5182 81.1953 34.75 80.8177 34.2031 80.2969C33.6562 79.776 33.3828 79.138 33.3828 78.3828ZM35.375 78.3828C35.375 78.6432 35.4141 78.8646 35.4922 79.0469C35.5964 79.2292 35.9089 79.3854 36.4297 79.5156V77.6797C35.7266 77.8359 35.375 78.0703 35.375 78.3828ZM42.0938 79.3594C42.3021 79.3594 42.4974 79.3464 42.6797 79.3203C42.888 79.2943 43.0964 79.2552 43.3047 79.2031C43.0964 79.0729 42.888 78.9557 42.6797 78.8516C42.4974 78.7474 42.3021 78.6562 42.0938 78.5781V79.3594ZM78.1094 40.4141C79.3594 40.4141 80.5703 41.013 81.7422 42.2109C82.9401 43.3828 84.0729 44.9844 85.1406 47.0156C86.2083 49.0208 87.1979 51.3646 88.1094 54.0469C89.0208 56.7031 89.8542 59.5156 90.6094 62.4844C92.4583 64.8802 94.4245 67.3932 96.5078 70.0234C98.5911 72.6536 100.74 75.3229 102.953 78.0312C105.193 80.7396 107.458 83.4609 109.75 86.1953C112.068 88.9036 114.372 91.5599 116.664 94.1641C115.023 86.9505 113.786 80.4661 112.953 74.7109C112.12 68.9557 111.703 63.8906 111.703 59.5156C111.703 56.3646 112.003 53.6042 112.602 51.2344C113.227 48.8385 114.06 46.8464 115.102 45.2578C116.143 43.6432 117.367 42.4323 118.773 41.625C120.18 40.8177 121.69 40.4141 123.305 40.4141C124.503 40.4141 125.544 40.6224 126.43 41.0391C127.341 41.4557 128.096 42.0156 128.695 42.7188C129.32 43.4219 129.776 44.2292 130.062 45.1406C130.375 46.0521 130.531 47.0026 130.531 47.9922C130.531 49.3203 130.388 50.5573 130.102 51.7031C129.841 52.849 129.555 53.8516 129.242 54.7109C128.852 55.7266 128.422 56.6641 127.953 57.5234L126.43 56.5469C126.534 56.3125 126.677 55.974 126.859 55.5312C127.068 55.0625 127.263 54.5026 127.445 53.8516C127.628 53.1745 127.784 52.4193 127.914 51.5859C128.044 50.7266 128.109 49.8021 128.109 48.8125C128.109 47.1979 127.745 45.9349 127.016 45.0234C126.286 44.0859 125.323 43.6172 124.125 43.6172C122.562 43.6172 121.234 44.151 120.141 45.2188C119.073 46.2604 118.201 47.7188 117.523 49.5938C116.872 51.4427 116.391 53.6302 116.078 56.1562C115.792 58.6562 115.648 61.3516 115.648 64.2422C115.648 66.9505 115.766 69.776 116 72.7188C116.234 75.6354 116.547 78.5651 116.938 81.5078C117.354 84.4245 117.823 87.2891 118.344 90.1016C118.891 92.9141 119.477 95.5443 120.102 97.9922L125.727 104.008L121 108.461C119.464 106.977 117.589 105.089 115.375 102.797C113.188 100.505 110.818 97.9141 108.266 95.0234C105.714 92.1328 103.044 89.0078 100.258 85.6484C97.4974 82.2891 94.776 78.8125 92.0938 75.2188C92.3542 76.7031 92.5234 78.2786 92.6016 79.9453C92.7057 81.5859 92.7578 83.3958 92.7578 85.375C92.7578 88.9948 92.3281 92.1068 91.4688 94.7109C90.6094 97.2891 89.4896 99.4245 88.1094 101.117C86.7552 102.784 85.2318 104.021 83.5391 104.828C81.8724 105.609 80.2188 106 78.5781 106C77.3021 106 76.0781 105.779 74.9062 105.336C73.7604 104.893 72.7448 104.242 71.8594 103.383C71 102.523 70.3099 101.482 69.7891 100.258C69.2682 99.0078 69.0078 97.5885 69.0078 96C69.0078 93.5781 69.5938 91.2344 70.7656 88.9688C71.9375 86.7031 73.4219 84.5677 75.2188 82.5625L76.7422 83.3438C76.2214 84.125 75.7266 84.9583 75.2578 85.8438C74.8151 86.7292 74.4115 87.6406 74.0469 88.5781C73.7083 89.4896 73.4349 90.4271 73.2266 91.3906C73.0182 92.3542 72.9141 93.3047 72.9141 94.2422C72.9141 95.4401 73.0964 96.5339 73.4609 97.5234C73.8516 98.487 74.3594 99.3203 74.9844 100.023C75.6094 100.701 76.3385 101.234 77.1719 101.625C78.0312 101.99 78.9297 102.172 79.8672 102.172C81.0911 102.172 82.3281 101.82 83.5781 101.117C84.8542 100.388 86 99.2422 87.0156 97.6797C88.0573 96.0911 88.9036 94.0469 89.5547 91.5469C90.2057 89.0208 90.5312 85.974 90.5312 82.4062C90.5312 80.349 90.401 78.3568 90.1406 76.4297C89.9062 74.4766 89.5547 72.6536 89.0859 70.9609C86.2474 66.9245 83.9036 63.4349 82.0547 60.4922C80.2318 57.5495 78.7865 55.0365 77.7188 52.9531C76.6771 50.8438 75.9479 49.112 75.5312 47.7578C75.1146 46.4036 74.9062 45.2839 74.9062 44.3984C74.9062 42.9922 75.2318 41.9766 75.8828 41.3516C76.5599 40.7266 77.3021 40.4141 78.1094 40.4141ZM77.3281 43.1875C77.3281 43.4479 77.5495 43.9948 77.9922 44.8281C78.4609 45.6354 79.112 46.6771 79.9453 47.9531C80.8047 49.2031 81.8333 50.6615 83.0312 52.3281C84.2292 53.9948 85.5703 55.8047 87.0547 57.7578C86.4036 55.7005 85.6875 53.7474 84.9062 51.8984C84.151 50.0234 83.3828 48.3828 82.6016 46.9766C81.8203 45.5703 81.0391 44.4635 80.2578 43.6562C79.4766 42.8229 78.7604 42.4062 78.1094 42.4062C77.5885 42.4062 77.3281 42.6667 77.3281 43.1875Z" fill="#FF9A23"/>
</g>
<circle cx="100.5" cy="54.5" r="37.5" fill="white" fill-opacity="0.24"/>
<defs>
<filter id="filter0_d_1_6" x="16.1797" y="40.4141" width="118.352" height="83.9766" filterUnits="userSpaceOnUse" color-interpolation-filters="sRGB">
<feFlood flood-opacity="0" result="BackgroundImageFix"/>
<feColorMatrix in="SourceAlpha" type="matrix" values="0 0 0 0 0 0 0 0 0 0 0 0 0 0 0 0 0 0 127 0" result="hardAlpha"/>
<feOffset dy="4"/>
<feGaussianBlur stdDeviation="2"/>
<feComposite in2="hardAlpha" operator="out"/>
<feColorMatrix type="matrix" values="0 0 0 0 0 0 0 0 0 0 0 0 0 0 0 0 0 0 0.25 0"/>
<feBlend mode="normal" in2="BackgroundImageFix" result="effect1_dropShadow_1_6"/>
<feBlend mode="normal" in="SourceGraphic" in2="effect1_dropShadow_1_6" result="shape"/>
</filter>
</defs>
</svg>
